<svg width="120" height="122" viewBox="0 0 120 122" fill="none" xmlns="http://www.w3.org/2000/svg">
<g clip-path="url(#clip0_9_93)">
<rect width="120" height="122" fill="black"/>
<path d="M38.9883 57.8339L46.0498 60.5147L57.9817 28.9667H49.9014L38.9883 57.8339Z" fill="#8B5CF6"/>
<path d="M47.805 86.6066L29.8505 93.4031L32.5312 100.464L52.4871 92.9121C53.7334 92.4401 54.6203 91.364 54.866 90.0611L57.7545 74.2776H50.0705L47.805 86.6066Z" fill="#EC4899"/>
<path d="M8.53528 104.486H54.6017V112.038H8.53528V104.486Z" fill="#F59E0B"/>
<path d="M83.5 87C83.9148 87.6231 84 88.2447 84 89V108H111V115H77V90L68.5 78H73H78L83.5 87Z" fill="#10B981"/>
<path d="M65 78V32H75L82 49L78.2873 58.0755L74 47H73.0909V78H65Z" fill="#10B981"/>
<ellipse cx="62.5" cy="16.5" rx="5.5" ry="7.5" fill="#8B5CF6"/>
</g>
<defs>
<clipPath id="clip0_9_93">
<rect width="120" height="122" fill="white"/>
</clipPath>
</defs>
</svg>
