<svg width="425" height="116" viewBox="0 0 425 116" fill="none" xmlns="http://www.w3.org/2000/svg">
<g clip-path="url(#clip0_8_56)">
<rect width="425" height="116" fill="black"/>
<path d="M34.9883 53.8339L42.0497 56.5147L53.9817 24.9667H45.9013L34.9883 53.8339Z" fill="#8B5CF6"/>
<path d="M43.805 82.6066L25.8505 89.4031L28.5312 96.4639L48.4871 88.9121C49.7334 88.4401 50.6203 87.364 50.866 86.0611L53.7545 70.2776H46.0705L43.805 82.6066Z" fill="#EC4899"/>
<path d="M4.53531 100.486H50.6017V108.038H4.53531V100.486Z" fill="#F59E0B"/>
<path d="M80 85V104H107V111H73V86L64.5 74H61V28H69V38V50V74H74L79.5 83C79.9148 83.6231 80 84.2447 80 85Z" fill="#10B981"/>
<path d="M61 74V28H71L78 45L74.2873 54.0755L70 43H69.0909V74H61Z" fill="#10B981"/>
<path d="M78.5 64.9583L82.1176 55L85 62H86L99 28H110V74H102V43H101L95 58.5L89 74H82L78.5 64.9583Z" fill="white"/>
<ellipse cx="58.5" cy="12.5" rx="5.5" ry="7.5" fill="#8B5CF6"/>
<path d="M114.227 74V39.0909H122.455V74H114.227ZM118.364 34.1364C117.061 34.1364 115.939 33.7045 115 32.8409C114.061 31.9621 113.591 30.9091 113.591 29.6818C113.591 28.4394 114.061 27.3864 115 26.5227C115.939 25.6439 117.061 25.2045 118.364 25.2045C119.682 25.2045 120.803 25.6439 121.727 26.5227C122.667 27.3864 123.136 28.4394 123.136 29.6818C123.136 30.9091 122.667 31.9621 121.727 32.8409C120.803 33.7045 119.682 34.1364 118.364 34.1364ZM135.942 53.5455V74H127.715V39.0909H135.578V45.0227H135.988C136.791 43.0682 138.071 41.5152 139.828 40.3636C141.601 39.2121 143.791 38.6364 146.397 38.6364C148.806 38.6364 150.904 39.1515 152.692 40.1818C154.495 41.2121 155.889 42.7045 156.874 44.6591C157.874 46.6136 158.366 48.9848 158.351 51.7727V74H150.124V53.0455C150.124 50.7121 149.518 48.8864 148.306 47.5682C147.109 46.25 145.45 45.5909 143.328 45.5909C141.889 45.5909 140.609 45.9091 139.488 46.5455C138.381 47.1667 137.51 48.0682 136.874 49.25C136.253 50.4318 135.942 51.8636 135.942 53.5455ZM176.469 74.6136C173.727 74.6136 171.272 73.9091 169.106 72.5C166.939 71.0909 165.227 69.0455 163.969 66.3636C162.712 63.6818 162.083 60.4242 162.083 56.5909C162.083 52.7121 162.719 49.4394 163.992 46.7727C165.28 44.0909 167.015 42.0682 169.197 40.7045C171.378 39.3258 173.81 38.6364 176.492 38.6364C178.537 38.6364 180.219 38.9848 181.537 39.6818C182.856 40.3636 183.901 41.1894 184.674 42.1591C185.447 43.1136 186.045 44.0152 186.469 44.8636H186.81V27.4545H195.06V74H186.969V68.5H186.469C186.045 69.3485 185.431 70.25 184.628 71.2045C183.825 72.1439 182.765 72.947 181.447 73.6136C180.128 74.2803 178.469 74.6136 176.469 74.6136ZM178.765 67.8636C180.507 67.8636 181.992 67.3939 183.219 66.4545C184.447 65.5 185.378 64.1742 186.015 62.4773C186.651 60.7803 186.969 58.803 186.969 56.5455C186.969 54.2879 186.651 52.3258 186.015 50.6591C185.394 48.9924 184.469 47.697 183.242 46.7727C182.03 45.8485 180.537 45.3864 178.765 45.3864C176.931 45.3864 175.401 45.8636 174.174 46.8182C172.947 47.7727 172.022 49.0909 171.401 50.7727C170.78 52.4545 170.469 54.3788 170.469 56.5455C170.469 58.7273 170.78 60.6742 171.401 62.3864C172.037 64.0833 172.969 65.4242 174.197 66.4091C175.439 67.3788 176.962 67.8636 178.765 67.8636ZM198.945 34.5227V27.4545H236.082V34.5227H221.695V74H213.332V34.5227H198.945ZM247.905 53.5455V74H239.677V27.4545H247.723V45.0227H248.132C248.95 43.053 250.215 41.5 251.927 40.3636C253.655 39.2121 255.852 38.6364 258.518 38.6364C260.942 38.6364 263.056 39.1439 264.859 40.1591C266.662 41.1742 268.056 42.6591 269.041 44.6136C270.041 46.5682 270.541 48.9545 270.541 51.7727V74H262.314V53.0455C262.314 50.697 261.708 48.8712 260.495 47.5682C259.298 46.25 257.617 45.5909 255.45 45.5909C253.995 45.5909 252.692 45.9091 251.541 46.5455C250.405 47.1667 249.511 48.0682 248.859 49.25C248.223 50.4318 247.905 51.8636 247.905 53.5455ZM291.182 74.6818C287.682 74.6818 284.659 73.9545 282.114 72.5C279.583 71.0303 277.636 68.9545 276.273 66.2727C274.909 63.5758 274.227 60.4015 274.227 56.75C274.227 53.1591 274.909 50.0076 276.273 47.2955C277.652 44.5682 279.576 42.447 282.045 40.9318C284.515 39.4015 287.417 38.6364 290.75 38.6364C292.902 38.6364 294.932 38.9848 296.841 39.6818C298.765 40.3636 300.462 41.4242 301.932 42.8636C303.417 44.303 304.583 46.1364 305.432 48.3636C306.28 50.5758 306.705 53.2121 306.705 56.2727V58.7955H278.091V53.25H298.818C298.803 51.6742 298.462 50.2727 297.795 49.0455C297.129 47.803 296.197 46.8258 295 46.1136C293.818 45.4015 292.439 45.0455 290.864 45.0455C289.182 45.0455 287.705 45.4545 286.432 46.2727C285.159 47.0758 284.167 48.1364 283.455 49.4545C282.758 50.7576 282.402 52.1894 282.386 53.75V58.5909C282.386 60.6212 282.758 62.3636 283.5 63.8182C284.242 65.2576 285.28 66.3636 286.614 67.1364C287.947 67.8939 289.508 68.2727 291.295 68.2727C292.492 68.2727 293.576 68.1061 294.545 67.7727C295.515 67.4242 296.356 66.9167 297.068 66.25C297.78 65.5833 298.318 64.7576 298.682 63.7727L306.364 64.6364C305.879 66.6667 304.955 68.4394 303.591 69.9545C302.242 71.4545 300.515 72.6212 298.409 73.4545C296.303 74.2727 293.894 74.6818 291.182 74.6818ZM342.01 42.3182C341.631 41.0909 341.109 39.9924 340.442 39.0227C339.791 38.0379 339.003 37.197 338.078 36.5C337.169 35.803 336.124 35.2803 334.942 34.9318C333.76 34.5682 332.472 34.3864 331.078 34.3864C328.578 34.3864 326.351 35.0152 324.397 36.2727C322.442 37.5303 320.904 39.3788 319.783 41.8182C318.677 44.2424 318.124 47.197 318.124 50.6818C318.124 54.197 318.677 57.1742 319.783 59.6136C320.889 62.053 322.427 63.9091 324.397 65.1818C326.366 66.4394 328.654 67.0682 331.26 67.0682C333.624 67.0682 335.669 66.6136 337.397 65.7045C339.139 64.7955 340.48 63.5076 341.419 61.8409C342.359 60.1591 342.828 58.1894 342.828 55.9318L344.738 56.2273H332.101V49.6364H350.988V55.2273C350.988 59.2121 350.139 62.6591 348.442 65.5682C346.745 68.4773 344.412 70.7197 341.442 72.2955C338.472 73.8561 335.063 74.6364 331.215 74.6364C326.927 74.6364 323.162 73.6742 319.919 71.75C316.692 69.8106 314.169 67.0606 312.351 63.5C310.548 59.9242 309.647 55.6818 309.647 50.7727C309.647 47.0152 310.177 43.6591 311.238 40.7045C312.313 37.75 313.813 35.2424 315.738 33.1818C317.662 31.1061 319.919 29.5303 322.51 28.4545C325.101 27.3636 327.919 26.8182 330.965 26.8182C333.541 26.8182 335.942 27.197 338.169 27.9545C340.397 28.697 342.374 29.7576 344.101 31.1364C345.844 32.5152 347.275 34.1515 348.397 36.0455C349.518 37.9394 350.253 40.0303 350.601 42.3182H342.01ZM365.623 74.7045C363.411 74.7045 361.418 74.3106 359.645 73.5227C357.888 72.7197 356.494 71.5379 355.464 69.9773C354.448 68.4167 353.941 66.4924 353.941 64.2045C353.941 62.2348 354.305 60.6061 355.032 59.3182C355.759 58.0303 356.752 57 358.009 56.2273C359.267 55.4545 360.683 54.8712 362.259 54.4773C363.85 54.0682 365.494 53.7727 367.191 53.5909C369.236 53.3788 370.895 53.1894 372.168 53.0227C373.441 52.8409 374.365 52.5682 374.941 52.2045C375.532 51.8258 375.827 51.2424 375.827 50.4545V50.3182C375.827 48.6061 375.32 47.2803 374.305 46.3409C373.289 45.4015 371.827 44.9318 369.918 44.9318C367.903 44.9318 366.305 45.3712 365.123 46.25C363.956 47.1288 363.168 48.1667 362.759 49.3636L355.077 48.2727C355.683 46.1515 356.683 44.3788 358.077 42.9545C359.471 41.5151 361.176 40.4394 363.191 39.7273C365.206 39 367.433 38.6364 369.873 38.6364C371.555 38.6364 373.229 38.8333 374.895 39.2273C376.562 39.6212 378.085 40.2727 379.464 41.1818C380.842 42.0758 381.948 43.2955 382.782 44.8409C383.63 46.3864 384.055 48.3182 384.055 50.6364V74H376.145V69.2045H375.873C375.373 70.1742 374.668 71.0833 373.759 71.9318C372.865 72.7652 371.736 73.4394 370.373 73.9545C369.024 74.4545 367.441 74.7045 365.623 74.7045ZM367.759 68.6591C369.411 68.6591 370.842 68.3333 372.055 67.6818C373.267 67.0152 374.198 66.1364 374.85 65.0455C375.517 63.9545 375.85 62.7652 375.85 61.4773V57.3636C375.592 57.5758 375.153 57.7727 374.532 57.9545C373.926 58.1364 373.244 58.2955 372.486 58.4318C371.729 58.5682 370.979 58.6894 370.236 58.7955C369.494 58.9015 368.85 58.9924 368.305 59.0682C367.077 59.2348 365.979 59.5076 365.009 59.8864C364.039 60.2652 363.274 60.7955 362.714 61.4773C362.153 62.1439 361.873 63.0076 361.873 64.0682C361.873 65.5833 362.426 66.7273 363.532 67.5C364.638 68.2727 366.047 68.6591 367.759 68.6591ZM389.127 87.0909V39.0909H397.218V44.8636H397.695C398.12 44.0152 398.718 43.1136 399.491 42.1591C400.264 41.1894 401.309 40.3636 402.627 39.6818C403.945 38.9848 405.627 38.6364 407.673 38.6364C410.37 38.6364 412.802 39.3258 414.968 40.7045C417.15 42.0682 418.877 44.0909 420.15 46.7727C421.438 49.4394 422.082 52.7121 422.082 56.5909C422.082 60.4242 421.453 63.6818 420.195 66.3636C418.938 69.0455 417.226 71.0909 415.059 72.5C412.892 73.9091 410.438 74.6136 407.695 74.6136C405.695 74.6136 404.036 74.2803 402.718 73.6136C401.4 72.947 400.339 72.1439 399.536 71.2045C398.748 70.25 398.135 69.3485 397.695 68.5H397.355V87.0909H389.127ZM397.195 56.5455C397.195 58.803 397.514 60.7803 398.15 62.4773C398.802 64.1742 399.733 65.5 400.945 66.4545C402.173 67.3939 403.658 67.8636 405.4 67.8636C407.218 67.8636 408.741 67.3788 409.968 66.4091C411.195 65.4242 412.12 64.0833 412.741 62.3864C413.377 60.6742 413.695 58.7273 413.695 56.5455C413.695 54.3788 413.385 52.4545 412.764 50.7727C412.142 49.0909 411.218 47.7727 409.991 46.8182C408.764 45.8636 407.233 45.3864 405.4 45.3864C403.642 45.3864 402.15 45.8485 400.923 46.7727C399.695 47.697 398.764 48.9924 398.127 50.6591C397.506 52.3258 397.195 54.2879 397.195 56.5455Z" fill="white"/>
</g>
<defs>
<clipPath id="clip0_8_56">
<rect width="425" height="116" fill="white"/>
</clipPath>
</defs>
</svg>
