<svg width="438" height="116" viewBox="0 0 438 116" fill="none" xmlns="http://www.w3.org/2000/svg">
<g clip-path="url(#clip0_8_56)">
<rect width="438" height="116" fill="black"/>
<path d="M34 54.5L43 57L55 25L45.9013 24.9667L34 54.5Z" fill="#8B5CF6"/>
<path d="M44 83L26 90L29 97L49 89C50.2464 88.528 50.7542 87.3029 51 86L53 70H45L44 83Z" fill="#EC4899"/>
<path d="M4.53531 100H50.6017V108.038H4.53531V100Z" fill="#F59E0B"/>
<path d="M81 85V103H107V111H72V86L64 74H61V28H69V38V50V74H74L80.5 82.5C80.9148 83.1231 81 84.2447 81 85Z" fill="#10B981"/>
<path d="M93.963 49.252L82.281 74.992L75.5 60.2178L80.0829 51.5L81.291 54.202C81.511 54.686 81.709 55.17 81.885 55.654C82.083 56.116 82.27 56.6 82.446 57.106C82.622 56.6 82.798 56.105 82.974 55.621C83.15 55.137 83.337 54.664 83.535 54.202L95.481 28H103.5V74.2H94.953V49.252C94.953 48.856 94.953 48.416 94.953 47.932C94.975 47.448 94.986 47.052 94.986 46.744C94.854 47.14 94.689 47.569 94.491 48.031C94.315 48.471 94.139 48.878 93.963 49.252Z" fill="white"/>
<path d="M61 74V28H69.5L77.5 46L73 55L69.5 47V74H61Z" fill="#10B981"/>
<ellipse cx="58.5" cy="12.5" rx="5.5" ry="7.5" fill="#8B5CF6"/>
<path d="M115.214 74V40.274H123.464V74H115.214ZM119.339 36.05C118.019 36.05 116.875 35.577 115.907 34.631C114.961 33.663 114.488 32.519 114.488 31.199C114.488 29.879 114.961 28.757 115.907 27.833C116.853 26.887 117.997 26.414 119.339 26.414C120.725 26.414 121.88 26.876 122.804 27.8C123.728 28.724 124.19 29.857 124.19 31.199C124.19 32.541 123.717 33.685 122.771 34.631C121.847 35.577 120.703 36.05 119.339 36.05ZM131.859 74V40.274H140.109V43.508C141.187 42.166 142.474 41.165 143.97 40.505C145.488 39.823 147.215 39.482 149.151 39.482C152.913 39.482 155.817 40.648 157.863 42.98C159.909 45.29 160.932 48.623 160.932 52.979V74H152.715V55.52C152.715 52.682 152.22 50.614 151.23 49.316C150.262 47.996 148.744 47.336 146.676 47.336C144.432 47.336 142.771 47.996 141.693 49.316C140.637 50.614 140.109 52.638 140.109 55.388V74H131.859ZM181.371 74.792C177.037 74.792 173.638 73.23 171.174 70.106C168.71 66.982 167.478 62.648 167.478 57.104C167.478 53.584 168.061 50.504 169.227 47.864C170.393 45.224 172.021 43.167 174.111 41.693C176.223 40.219 178.676 39.482 181.47 39.482C184.462 39.482 186.915 40.582 188.829 42.782V30.077L197.046 26.348V74H188.829V71.228C187.201 73.604 184.715 74.792 181.371 74.792ZM182.724 66.905C184.132 66.905 185.331 66.663 186.321 66.179C187.311 65.673 188.147 64.925 188.829 63.935V50.306C188.147 49.382 187.256 48.656 186.156 48.128C185.078 47.6 183.934 47.336 182.724 47.336C180.502 47.336 178.786 48.183 177.576 49.877C176.366 51.549 175.761 53.958 175.761 57.104C175.761 59.172 176.036 60.943 176.586 62.417C177.136 63.869 177.928 64.98 178.962 65.75C179.996 66.52 181.25 66.905 182.724 66.905ZM219.76 74V36.017H206.659V27.8H241.474V36.017H228.307V74H219.76ZM247.055 74V30.143L255.305 26.348V43.541C256.383 42.177 257.67 41.165 259.166 40.505C260.684 39.823 262.411 39.482 264.347 39.482C266.943 39.482 269.11 40.032 270.848 41.132C272.608 42.21 273.928 43.761 274.808 45.785C275.688 47.787 276.128 50.185 276.128 52.979V74H267.911V55.52C267.911 52.748 267.438 50.691 266.492 49.349C265.546 48.007 264.006 47.336 261.872 47.336C259.628 47.336 257.967 47.996 256.889 49.316C255.833 50.614 255.305 52.638 255.305 55.388V74H247.055ZM298.349 74.792C295.115 74.792 292.321 74.066 289.967 72.614C287.635 71.162 285.831 69.116 284.555 66.476C283.301 63.814 282.674 60.69 282.674 57.104C282.674 53.474 283.312 50.339 284.588 47.699C285.886 45.059 287.701 43.035 290.033 41.627C292.387 40.197 295.159 39.482 298.349 39.482C301.077 39.482 303.552 40.054 305.774 41.198C307.996 42.342 309.767 44.102 311.087 46.478C312.407 48.832 313.067 51.835 313.067 55.487C313.067 56.059 313.045 56.763 313.001 57.599C312.979 58.413 312.924 59.238 312.836 60.074H290.825C290.913 61.614 291.265 62.967 291.881 64.133C292.519 65.277 293.388 66.168 294.488 66.806C295.588 67.444 296.886 67.763 298.382 67.763C299.988 67.763 301.385 67.499 302.573 66.971C303.761 66.421 304.883 65.552 305.939 64.364L310.691 69.281C309.239 70.931 307.49 72.262 305.444 73.274C303.398 74.286 301.033 74.792 298.349 74.792ZM290.858 53.639H305.081C304.971 52.165 304.641 50.9 304.091 49.844C303.541 48.766 302.771 47.941 301.781 47.369C300.791 46.797 299.592 46.511 298.184 46.511C296.248 46.511 294.598 47.105 293.234 48.293C291.87 49.481 291.078 51.263 290.858 53.639ZM342.592 74.792C339.05 74.792 336.003 74.132 333.451 72.812C330.899 71.47 328.82 69.666 327.214 67.4C325.608 65.112 324.409 62.549 323.617 59.711C322.847 56.851 322.462 53.914 322.462 50.9C322.462 48.018 322.858 45.169 323.65 42.353C324.464 39.537 325.685 36.974 327.313 34.664C328.963 32.354 331.053 30.506 333.583 29.12C336.113 27.712 339.116 27.008 342.592 27.008C345.54 27.008 348.026 27.47 350.05 28.394C352.096 29.318 353.812 30.528 355.198 32.024C356.606 33.498 357.827 35.06 358.861 36.71L351.337 41C350.325 39.438 349.126 38.074 347.74 36.908C346.376 35.742 344.66 35.159 342.592 35.159C340.436 35.159 338.632 35.643 337.18 36.611C335.75 37.579 334.606 38.844 333.748 40.406C332.89 41.968 332.274 43.673 331.9 45.521C331.526 47.347 331.339 49.14 331.339 50.9C331.339 52.902 331.548 54.838 331.966 56.708C332.384 58.578 333.044 60.261 333.946 61.757C334.848 63.253 336.014 64.441 337.444 65.321C338.874 66.179 340.59 66.608 342.592 66.608C344.11 66.608 345.485 66.267 346.717 65.585C347.971 64.903 348.961 63.99 349.687 62.846C350.413 61.68 350.776 60.371 350.776 58.919V58.061H342.922V49.976H359.587V56.642C359.587 60.558 358.828 63.869 357.31 66.575C355.814 69.259 353.779 71.305 351.205 72.713C348.653 74.099 345.782 74.792 342.592 74.792ZM376.889 74.792C373.215 74.792 370.3 73.802 368.144 71.822C366.01 69.82 364.943 67.114 364.943 63.704C364.943 61.504 365.493 59.579 366.593 57.929C367.715 56.257 369.266 54.97 371.246 54.068C373.248 53.144 375.58 52.682 378.242 52.682C379.716 52.682 381.135 52.825 382.499 53.111C383.885 53.375 385.095 53.76 386.129 54.266V52.154C386.129 50.262 385.59 48.843 384.512 47.897C383.456 46.929 381.894 46.445 379.826 46.445C378.176 46.445 376.482 46.742 374.744 47.336C373.006 47.93 371.246 48.81 369.464 49.976L366.989 43.475C368.925 42.199 371.081 41.22 373.457 40.538C375.833 39.834 378.231 39.482 380.651 39.482C385.183 39.482 388.571 40.56 390.815 42.716C393.059 44.85 394.181 48.04 394.181 52.286V74H386.129V71.294C384.985 72.438 383.621 73.307 382.037 73.901C380.475 74.495 378.759 74.792 376.889 74.792ZM378.803 67.829C380.167 67.829 381.476 67.565 382.73 67.037C384.006 66.487 385.139 65.717 386.129 64.727V60.734C385.183 60.272 384.127 59.92 382.961 59.678C381.817 59.414 380.673 59.282 379.529 59.282C377.483 59.282 375.866 59.678 374.678 60.47C373.512 61.24 372.929 62.318 372.929 63.704C372.929 65.002 373.446 66.014 374.48 66.74C375.514 67.466 376.955 67.829 378.803 67.829ZM402.068 87.398V40.274H410.318V42.749C412.166 40.571 414.641 39.482 417.743 39.482C420.625 39.482 423.111 40.197 425.201 41.627C427.291 43.035 428.897 45.059 430.019 47.699C431.141 50.339 431.702 53.485 431.702 57.137C431.702 60.679 431.119 63.781 429.953 66.443C428.787 69.083 427.148 71.14 425.036 72.614C422.924 74.066 420.46 74.792 417.644 74.792C416.104 74.792 414.718 74.517 413.486 73.967C412.254 73.395 411.198 72.559 410.318 71.459V83.669L402.068 87.398ZM416.423 66.905C418.667 66.905 420.394 66.058 421.604 64.364C422.814 62.648 423.419 60.239 423.419 57.137C423.419 54.035 422.803 51.626 421.571 49.91C420.339 48.194 418.623 47.336 416.423 47.336C415.081 47.336 413.904 47.578 412.892 48.062C411.902 48.546 411.044 49.283 410.318 50.273V63.902C410.912 64.848 411.748 65.585 412.826 66.113C413.926 66.641 415.125 66.905 416.423 66.905Z" fill="white"/>
</g>
<defs>
<clipPath id="clip0_8_56">
<rect width="438" height="116" fill="white"/>
</clipPath>
</defs>
</svg>
