<svg width="428" height="116" viewBox="0 0 428 116" fill="none" xmlns="http://www.w3.org/2000/svg">
<path d="M34 48.0489L43 50L55 25.026L45.9013 25L34 48.0489Z" fill="#8B5CF6"/>
<path d="M43 68.963L26 75.7037L29 84L49 75.7037C50.2464 75.2142 50.7542 73.9437 51 72.5926L53 56H44L43 68.963Z" fill="#EC4899"/>
<path d="M7 88H53.0664V96.0375H7V88Z" fill="#F59E0B"/>
<ellipse cx="59" cy="17.5" rx="5" ry="5.5" fill="#00A3E0"/>
<path d="M73 48L68.8912 57.3554L66.916 53.052C66.762 52.722 66.597 52.337 66.421 51.897C66.245 51.457 66.091 51.017 65.959 50.577C65.981 50.929 65.992 51.347 65.992 51.831C66.014 52.315 66.025 52.744 66.025 53.118V78H57.478V31.8H66.025L73 48Z" fill="#10B981"/>
<path d="M90.412 53.052C90.588 52.678 90.764 52.271 90.94 51.831C91.138 51.369 91.303 50.94 91.435 50.544C91.435 50.852 91.424 51.248 91.402 51.732V53.052V78H99.949V31.8H91.93L74.2357 69L78.73 78.792L90.412 53.052Z" fill="white"/>
<path d="M107.214 78V44.274H115.464V78H107.214ZM111.339 40.05C110.019 40.05 108.875 39.577 107.907 38.631C106.961 37.663 106.488 36.519 106.488 35.199C106.488 33.879 106.961 32.757 107.907 31.833C108.853 30.887 109.997 30.414 111.339 30.414C112.725 30.414 113.88 30.876 114.804 31.8C115.728 32.724 116.19 33.857 116.19 35.199C116.19 36.541 115.717 37.685 114.771 38.631C113.847 39.577 112.703 40.05 111.339 40.05ZM123.859 78V44.274H132.109V47.508C133.187 46.166 134.474 45.165 135.97 44.505C137.488 43.823 139.215 43.482 141.151 43.482C144.913 43.482 147.817 44.648 149.863 46.98C151.909 49.29 152.932 52.623 152.932 56.979V78H144.715V59.52C144.715 56.682 144.22 54.614 143.23 53.316C142.262 51.996 140.744 51.336 138.676 51.336C136.432 51.336 134.771 51.996 133.693 53.316C132.637 54.614 132.109 56.638 132.109 59.388V78H123.859ZM173.371 78.792C169.037 78.792 165.638 77.23 163.174 74.106C160.71 70.982 159.478 66.648 159.478 61.104C159.478 57.584 160.061 54.504 161.227 51.864C162.393 49.224 164.021 47.167 166.111 45.693C168.223 44.219 170.676 43.482 173.47 43.482C176.462 43.482 178.915 44.582 180.829 46.782V34.077L189.046 30.348V78H180.829V75.228C179.201 77.604 176.715 78.792 173.371 78.792ZM174.724 70.905C176.132 70.905 177.331 70.663 178.321 70.179C179.311 69.673 180.147 68.925 180.829 67.935V54.306C180.147 53.382 179.256 52.656 178.156 52.128C177.078 51.6 175.934 51.336 174.724 51.336C172.502 51.336 170.786 52.183 169.576 53.877C168.366 55.549 167.761 57.958 167.761 61.104C167.761 63.172 168.036 64.943 168.586 66.417C169.136 67.869 169.928 68.98 170.962 69.75C171.996 70.52 173.25 70.905 174.724 70.905ZM211.76 78V40.017H198.659V31.8H233.474V40.017H220.307V78H211.76ZM239.055 78V34.143L247.305 30.348V47.541C248.383 46.177 249.67 45.165 251.166 44.505C252.684 43.823 254.411 43.482 256.347 43.482C258.943 43.482 261.11 44.032 262.848 45.132C264.608 46.21 265.928 47.761 266.808 49.785C267.688 51.787 268.128 54.185 268.128 56.979V78H259.911V59.52C259.911 56.748 259.438 54.691 258.492 53.349C257.546 52.007 256.006 51.336 253.872 51.336C251.628 51.336 249.967 51.996 248.889 53.316C247.833 54.614 247.305 56.638 247.305 59.388V78H239.055ZM290.349 78.792C287.115 78.792 284.321 78.066 281.967 76.614C279.635 75.162 277.831 73.116 276.555 70.476C275.301 67.814 274.674 64.69 274.674 61.104C274.674 57.474 275.312 54.339 276.588 51.699C277.886 49.059 279.701 47.035 282.033 45.627C284.387 44.197 287.159 43.482 290.349 43.482C293.077 43.482 295.552 44.054 297.774 45.198C299.996 46.342 301.767 48.102 303.087 50.478C304.407 52.832 305.067 55.835 305.067 59.487C305.067 60.059 305.045 60.763 305.001 61.599C304.979 62.413 304.924 63.238 304.836 64.074H282.825C282.913 65.614 283.265 66.967 283.881 68.133C284.519 69.277 285.388 70.168 286.488 70.806C287.588 71.444 288.886 71.763 290.382 71.763C291.988 71.763 293.385 71.499 294.573 70.971C295.761 70.421 296.883 69.552 297.939 68.364L302.691 73.281C301.239 74.931 299.49 76.262 297.444 77.274C295.398 78.286 293.033 78.792 290.349 78.792ZM282.858 57.639H297.081C296.971 56.165 296.641 54.9 296.091 53.844C295.541 52.766 294.771 51.941 293.781 51.369C292.791 50.797 291.592 50.511 290.184 50.511C288.248 50.511 286.598 51.105 285.234 52.293C283.87 53.481 283.078 55.263 282.858 57.639ZM334.592 78.792C331.05 78.792 328.003 78.132 325.451 76.812C322.899 75.47 320.82 73.666 319.214 71.4C317.608 69.112 316.409 66.549 315.617 63.711C314.847 60.851 314.462 57.914 314.462 54.9C314.462 52.018 314.858 49.169 315.65 46.353C316.464 43.537 317.685 40.974 319.313 38.664C320.963 36.354 323.053 34.506 325.583 33.12C328.113 31.712 331.116 31.008 334.592 31.008C337.54 31.008 340.026 31.47 342.05 32.394C344.096 33.318 345.812 34.528 347.198 36.024C348.606 37.498 349.827 39.06 350.861 40.71L343.337 45C342.325 43.438 341.126 42.074 339.74 40.908C338.376 39.742 336.66 39.159 334.592 39.159C332.436 39.159 330.632 39.643 329.18 40.611C327.75 41.579 326.606 42.844 325.748 44.406C324.89 45.968 324.274 47.673 323.9 49.521C323.526 51.347 323.339 53.14 323.339 54.9C323.339 56.902 323.548 58.838 323.966 60.708C324.384 62.578 325.044 64.261 325.946 65.757C326.848 67.253 328.014 68.441 329.444 69.321C330.874 70.179 332.59 70.608 334.592 70.608C336.11 70.608 337.485 70.267 338.717 69.585C339.971 68.903 340.961 67.99 341.687 66.846C342.413 65.68 342.776 64.371 342.776 62.919V62.061H334.922V53.976H351.587V60.642C351.587 64.558 350.828 67.869 349.31 70.575C347.814 73.259 345.779 75.305 343.205 76.713C340.653 78.099 337.782 78.792 334.592 78.792ZM368.889 78.792C365.215 78.792 362.3 77.802 360.144 75.822C358.01 73.82 356.943 71.114 356.943 67.704C356.943 65.504 357.493 63.579 358.593 61.929C359.715 60.257 361.266 58.97 363.246 58.068C365.248 57.144 367.58 56.682 370.242 56.682C371.716 56.682 373.135 56.825 374.499 57.111C375.885 57.375 377.095 57.76 378.129 58.266V56.154C378.129 54.262 377.59 52.843 376.512 51.897C375.456 50.929 373.894 50.445 371.826 50.445C370.176 50.445 368.482 50.742 366.744 51.336C365.006 51.93 363.246 52.81 361.464 53.976L358.989 47.475C360.925 46.199 363.081 45.22 365.457 44.538C367.833 43.834 370.231 43.482 372.651 43.482C377.183 43.482 380.571 44.56 382.815 46.716C385.059 48.85 386.181 52.04 386.181 56.286V78H378.129V75.294C376.985 76.438 375.621 77.307 374.037 77.901C372.475 78.495 370.759 78.792 368.889 78.792ZM370.803 71.829C372.167 71.829 373.476 71.565 374.73 71.037C376.006 70.487 377.139 69.717 378.129 68.727V64.734C377.183 64.272 376.127 63.92 374.961 63.678C373.817 63.414 372.673 63.282 371.529 63.282C369.483 63.282 367.866 63.678 366.678 64.47C365.512 65.24 364.929 66.318 364.929 67.704C364.929 69.002 365.446 70.014 366.48 70.74C367.514 71.466 368.955 71.829 370.803 71.829ZM394.068 91.398V44.274H402.318V46.749C404.166 44.571 406.641 43.482 409.743 43.482C412.625 43.482 415.111 44.197 417.201 45.627C419.291 47.035 420.897 49.059 422.019 51.699C423.141 54.339 423.702 57.485 423.702 61.137C423.702 64.679 423.119 67.781 421.953 70.443C420.787 73.083 419.148 75.14 417.036 76.614C414.924 78.066 412.46 78.792 409.644 78.792C408.104 78.792 406.718 78.517 405.486 77.967C404.254 77.395 403.198 76.559 402.318 75.459V87.669L394.068 91.398ZM408.423 70.905C410.667 70.905 412.394 70.058 413.604 68.364C414.814 66.648 415.419 64.239 415.419 61.137C415.419 58.035 414.803 55.626 413.571 53.91C412.339 52.194 410.623 51.336 408.423 51.336C407.081 51.336 405.904 51.578 404.892 52.062C403.902 52.546 403.044 53.283 402.318 54.273V67.902C402.912 68.848 403.748 69.585 404.826 70.113C405.926 70.641 407.125 70.905 408.423 70.905Z" fill="white"/>
</svg>
