<svg width="152" height="116" viewBox="0 0 152 116" fill="none" xmlns="http://www.w3.org/2000/svg">
<path d="M34 48.0489L43 50L55 25.026L45.9013 25L34 48.0489Z" fill="#8B5CF6"/>
<path d="M43 68.963L26 75.7037L29 84L49 75.7037C50.2464 75.2142 50.7542 73.9437 51 72.5926L53 56H44L43 68.963Z" fill="#EC4899"/>
<path d="M7 88H53.0664V96.0375H7V88Z" fill="#F59E0B"/>
<ellipse cx="59" cy="17.5" rx="5" ry="5.5" fill="#00A3E0"/>
<path d="M73 48L68.8912 57.3554L66.916 53.052C66.762 52.722 66.597 52.337 66.421 51.897C66.245 51.457 66.091 51.017 65.959 50.577C65.981 50.929 65.992 51.347 65.992 51.831C66.014 52.315 66.025 52.744 66.025 53.118V78H57.478V31.8H66.025L73 48Z" fill="#10B981"/>
<path d="M90.412 53.052C90.588 52.678 90.764 52.271 90.94 51.831C91.138 51.369 91.303 50.94 91.435 50.544C91.435 50.852 91.424 51.248 91.402 51.732V53.052V78H99.949V31.8H91.93L74.2357 69L78.73 78.792L90.412 53.052Z" fill="white"/>
</svg>
