<svg width="438" height="116" viewBox="0 0 438 116" fill="none" xmlns="http://www.w3.org/2000/svg">
<g clip-path="url(#clip0_8_56)">
<rect width="438" height="116" fill="black"/>
<path d="M34 48.0489L43 50L55 25.026L45.9013 25L34 48.0489Z" fill="#8B5CF6"/>
<path d="M43 68.963L26 75.7037L29 84L49 75.7037C50.2464 75.2142 50.7542 73.9437 51 72.5926L53 56H44L43 68.963Z" fill="#EC4899"/>
<path d="M7 88H53.0664V96.0375H7V88Z" fill="#F59E0B"/>
<ellipse cx="60" cy="18.5" rx="5" ry="5.5" fill="#00A3E0"/>
<path d="M73 48L68.8912 57.3554L66.916 53.052C66.762 52.722 66.597 52.337 66.421 51.897C66.245 51.457 66.091 51.017 65.959 50.577C65.981 50.929 65.992 51.347 65.992 51.831C66.014 52.315 66.025 52.744 66.025 53.118V78H57.478V31.8H66.025L73 48Z" fill="#10B981"/>
<path d="M90.412 53.052C90.588 52.678 90.764 52.271 90.94 51.831C91.138 51.369 91.303 50.94 91.435 50.544C91.435 50.852 91.424 51.248 91.402 51.732V53.052V78H99.949V31.8H91.93L74.2357 69L78.73 78.792L90.412 53.052Z" fill="white"/>
<path d="M105.214 78V44.274H113.464V78H105.214ZM109.339 40.05C108.019 40.05 106.875 39.577 105.907 38.631C104.961 37.663 104.488 36.519 104.488 35.199C104.488 33.879 104.961 32.757 105.907 31.833C106.853 30.887 107.997 30.414 109.339 30.414C110.725 30.414 111.88 30.876 112.804 31.8C113.728 32.724 114.19 33.857 114.19 35.199C114.19 36.541 113.717 37.685 112.771 38.631C111.847 39.577 110.703 40.05 109.339 40.05ZM121.859 78V44.274H130.109V47.508C131.187 46.166 132.474 45.165 133.97 44.505C135.488 43.823 137.215 43.482 139.151 43.482C142.913 43.482 145.817 44.648 147.863 46.98C149.909 49.29 150.932 52.623 150.932 56.979V78H142.715V59.52C142.715 56.682 142.22 54.614 141.23 53.316C140.262 51.996 138.744 51.336 136.676 51.336C134.432 51.336 132.771 51.996 131.693 53.316C130.637 54.614 130.109 56.638 130.109 59.388V78H121.859ZM171.371 78.792C167.037 78.792 163.638 77.23 161.174 74.106C158.71 70.982 157.478 66.648 157.478 61.104C157.478 57.584 158.061 54.504 159.227 51.864C160.393 49.224 162.021 47.167 164.111 45.693C166.223 44.219 168.676 43.482 171.47 43.482C174.462 43.482 176.915 44.582 178.829 46.782V34.077L187.046 30.348V78H178.829V75.228C177.201 77.604 174.715 78.792 171.371 78.792ZM172.724 70.905C174.132 70.905 175.331 70.663 176.321 70.179C177.311 69.673 178.147 68.925 178.829 67.935V54.306C178.147 53.382 177.256 52.656 176.156 52.128C175.078 51.6 173.934 51.336 172.724 51.336C170.502 51.336 168.786 52.183 167.576 53.877C166.366 55.549 165.761 57.958 165.761 61.104C165.761 63.172 166.036 64.943 166.586 66.417C167.136 67.869 167.928 68.98 168.962 69.75C169.996 70.52 171.25 70.905 172.724 70.905ZM209.76 78V40.017H196.659V31.8H231.474V40.017H218.307V78H209.76ZM237.055 78V34.143L245.305 30.348V47.541C246.383 46.177 247.67 45.165 249.166 44.505C250.684 43.823 252.411 43.482 254.347 43.482C256.943 43.482 259.11 44.032 260.848 45.132C262.608 46.21 263.928 47.761 264.808 49.785C265.688 51.787 266.128 54.185 266.128 56.979V78H257.911V59.52C257.911 56.748 257.438 54.691 256.492 53.349C255.546 52.007 254.006 51.336 251.872 51.336C249.628 51.336 247.967 51.996 246.889 53.316C245.833 54.614 245.305 56.638 245.305 59.388V78H237.055ZM288.349 78.792C285.115 78.792 282.321 78.066 279.967 76.614C277.635 75.162 275.831 73.116 274.555 70.476C273.301 67.814 272.674 64.69 272.674 61.104C272.674 57.474 273.312 54.339 274.588 51.699C275.886 49.059 277.701 47.035 280.033 45.627C282.387 44.197 285.159 43.482 288.349 43.482C291.077 43.482 293.552 44.054 295.774 45.198C297.996 46.342 299.767 48.102 301.087 50.478C302.407 52.832 303.067 55.835 303.067 59.487C303.067 60.059 303.045 60.763 303.001 61.599C302.979 62.413 302.924 63.238 302.836 64.074H280.825C280.913 65.614 281.265 66.967 281.881 68.133C282.519 69.277 283.388 70.168 284.488 70.806C285.588 71.444 286.886 71.763 288.382 71.763C289.988 71.763 291.385 71.499 292.573 70.971C293.761 70.421 294.883 69.552 295.939 68.364L300.691 73.281C299.239 74.931 297.49 76.262 295.444 77.274C293.398 78.286 291.033 78.792 288.349 78.792ZM280.858 57.639H295.081C294.971 56.165 294.641 54.9 294.091 53.844C293.541 52.766 292.771 51.941 291.781 51.369C290.791 50.797 289.592 50.511 288.184 50.511C286.248 50.511 284.598 51.105 283.234 52.293C281.87 53.481 281.078 55.263 280.858 57.639ZM332.592 78.792C329.05 78.792 326.003 78.132 323.451 76.812C320.899 75.47 318.82 73.666 317.214 71.4C315.608 69.112 314.409 66.549 313.617 63.711C312.847 60.851 312.462 57.914 312.462 54.9C312.462 52.018 312.858 49.169 313.65 46.353C314.464 43.537 315.685 40.974 317.313 38.664C318.963 36.354 321.053 34.506 323.583 33.12C326.113 31.712 329.116 31.008 332.592 31.008C335.54 31.008 338.026 31.47 340.05 32.394C342.096 33.318 343.812 34.528 345.198 36.024C346.606 37.498 347.827 39.06 348.861 40.71L341.337 45C340.325 43.438 339.126 42.074 337.74 40.908C336.376 39.742 334.66 39.159 332.592 39.159C330.436 39.159 328.632 39.643 327.18 40.611C325.75 41.579 324.606 42.844 323.748 44.406C322.89 45.968 322.274 47.673 321.9 49.521C321.526 51.347 321.339 53.14 321.339 54.9C321.339 56.902 321.548 58.838 321.966 60.708C322.384 62.578 323.044 64.261 323.946 65.757C324.848 67.253 326.014 68.441 327.444 69.321C328.874 70.179 330.59 70.608 332.592 70.608C334.11 70.608 335.485 70.267 336.717 69.585C337.971 68.903 338.961 67.99 339.687 66.846C340.413 65.68 340.776 64.371 340.776 62.919V62.061H332.922V53.976H349.587V60.642C349.587 64.558 348.828 67.869 347.31 70.575C345.814 73.259 343.779 75.305 341.205 76.713C338.653 78.099 335.782 78.792 332.592 78.792ZM366.889 78.792C363.215 78.792 360.3 77.802 358.144 75.822C356.01 73.82 354.943 71.114 354.943 67.704C354.943 65.504 355.493 63.579 356.593 61.929C357.715 60.257 359.266 58.97 361.246 58.068C363.248 57.144 365.58 56.682 368.242 56.682C369.716 56.682 371.135 56.825 372.499 57.111C373.885 57.375 375.095 57.76 376.129 58.266V56.154C376.129 54.262 375.59 52.843 374.512 51.897C373.456 50.929 371.894 50.445 369.826 50.445C368.176 50.445 366.482 50.742 364.744 51.336C363.006 51.93 361.246 52.81 359.464 53.976L356.989 47.475C358.925 46.199 361.081 45.22 363.457 44.538C365.833 43.834 368.231 43.482 370.651 43.482C375.183 43.482 378.571 44.56 380.815 46.716C383.059 48.85 384.181 52.04 384.181 56.286V78H376.129V75.294C374.985 76.438 373.621 77.307 372.037 77.901C370.475 78.495 368.759 78.792 366.889 78.792ZM368.803 71.829C370.167 71.829 371.476 71.565 372.73 71.037C374.006 70.487 375.139 69.717 376.129 68.727V64.734C375.183 64.272 374.127 63.92 372.961 63.678C371.817 63.414 370.673 63.282 369.529 63.282C367.483 63.282 365.866 63.678 364.678 64.47C363.512 65.24 362.929 66.318 362.929 67.704C362.929 69.002 363.446 70.014 364.48 70.74C365.514 71.466 366.955 71.829 368.803 71.829ZM392.068 91.398V44.274H400.318V46.749C402.166 44.571 404.641 43.482 407.743 43.482C410.625 43.482 413.111 44.197 415.201 45.627C417.291 47.035 418.897 49.059 420.019 51.699C421.141 54.339 421.702 57.485 421.702 61.137C421.702 64.679 421.119 67.781 419.953 70.443C418.787 73.083 417.148 75.14 415.036 76.614C412.924 78.066 410.46 78.792 407.644 78.792C406.104 78.792 404.718 78.517 403.486 77.967C402.254 77.395 401.198 76.559 400.318 75.459V87.669L392.068 91.398ZM406.423 70.905C408.667 70.905 410.394 70.058 411.604 68.364C412.814 66.648 413.419 64.239 413.419 61.137C413.419 58.035 412.803 55.626 411.571 53.91C410.339 52.194 408.623 51.336 406.423 51.336C405.081 51.336 403.904 51.578 402.892 52.062C401.902 52.546 401.044 53.283 400.318 54.273V67.902C400.912 68.848 401.748 69.585 402.826 70.113C403.926 70.641 405.125 70.905 406.423 70.905Z" fill="white"/>
</g>
<defs>
<clipPath id="clip0_8_56">
<rect width="438" height="116" fill="white"/>
</clipPath>
</defs>
</svg>
